<?xml version="1.0" standalone="no"?>
<!DOCTYPE svg PUBLIC "-//W3C//DTD SVG 20010904//EN"
 "http://www.w3.org/TR/2001/REC-SVG-20010904/DTD/svg10.dtd">
<svg version="1.0" xmlns="http://www.w3.org/2000/svg"
 width="400.000000px" height="400.000000px" viewBox="0 0 400.000000 400.000000"
 preserveAspectRatio="xMidYMid meet">

<g transform="translate(0.000000,400.000000) scale(0.100000,-0.100000)"
fill="#000000" stroke="none">
<path d="M1785 3988 c-121 -12 -299 -53 -415 -94 -121 -44 -131 -54 -53 -54
89 0 281 -35 413 -76 251 -77 533 -243 728 -426 308 -291 476 -585 568 -999
27 -118 28 -137 28 -379 0 -242 -1 -261 -28 -379 -40 -180 -121 -408 -174
-489 -8 -12 -12 -25 -9 -29 11 -10 186 56 299 112 318 158 594 428 751 732 63
123 77 177 77 301 0 125 -25 260 -80 425 -286 858 -1200 1446 -2105 1355z"/>
<path d="M958 3665 c-114 -38 -214 -109 -368 -264 -166 -167 -246 -278 -349
-486 -106 -213 -162 -390 -196 -620 -19 -130 -19 -456 0 -590 46 -326 166
-626 352 -888 67 -94 246 -283 332 -351 l60 -47 -49 103 c-193 409 -220 897
-75 1375 198 652 778 1155 1470 1274 60 10 135 19 165 20 99 1 101 7 24 76
-158 139 -401 277 -605 341 -179 57 -286 74 -494 78 -182 4 -193 3 -267 -21z"/>
<path d="M761 1703 c-29 -110 -36 -189 -35 -398 0 -188 3 -235 22 -325 64
-299 206 -601 341 -722 71 -64 139 -101 273 -149 698 -249 1510 -50 2062 506
292 293 481 668 541 1075 l7 45 -32 -50 c-133 -206 -352 -417 -580 -558 -280
-172 -676 -287 -993 -287 -608 0 -1211 324 -1550 833 l-46 69 -10 -39z"/>
</g>
</svg>
