<?xml version="1.0" standalone="no"?>
<!DOCTYPE svg PUBLIC "-//W3C//DTD SVG 20010904//EN"
 "http://www.w3.org/TR/2001/REC-SVG-20010904/DTD/svg10.dtd">
<svg version="1.0" xmlns="http://www.w3.org/2000/svg"
 width="2000.000000pt" height="2731.000000pt" viewBox="0 0 2000.000000 2731.000000"
 preserveAspectRatio="xMidYMid meet">

<g transform="translate(0.000000,2731.000000) scale(0.100000,-0.100000)"
fill="#02cdfa">
<path d="M9848 27138 c-699 -790 -1120 -1322 -1503 -1898 -882 -1327 -1482
-2830 -1679 -4205 -57 -396 -77 -681 -77 -1080 0 -661 74 -1199 248 -1785 42
-142 327 -935 743 -2065 873 -2373 1122 -3155 1330 -4170 182 -895 280 -1934
280 -2997 l0 -288 -570 0 -570 0 0 68 c0 109 -19 500 -35 732 -229 3272 -1536
5635 -3555 6433 -439 173 -699 223 -1115 214 -314 -7 -522 -42 -815 -138 -525
-173 -1011 -488 -1481 -958 -267 -268 -412 -468 -590 -816 -520 -1013 -602
-2254 -214 -3237 383 -968 1162 -1657 2301 -2034 89 -29 224 -70 300 -90 162
-42 446 -105 452 -99 2 2 -12 30 -31 62 -99 163 -178 412 -213 675 -20 143
-22 437 -5 573 78 623 373 1099 805 1300 258 121 524 172 844 162 209 -6 357
-31 518 -88 213 -75 417 -210 609 -403 193 -195 322 -381 470 -681 233 -474
366 -995 391 -1533 l7 -143 -986 3 -987 3 0 -1097 0 -1098 2045 0 2046 0 -6
-68 c-40 -438 -125 -759 -291 -1092 -281 -560 -729 -989 -1369 -1308 -82 -41
-151 -75 -153 -77 -6 -6 62 -166 110 -255 198 -375 517 -718 852 -914 231
-137 466 -205 712 -209 63 -1 114 -2 114 -4 0 -23 101 -496 135 -632 171 -679
437 -1168 959 -1760 56 -63 106 -122 112 -130 13 -17 36 6 214 215 387 453
636 879 795 1359 51 154 139 506 180 715 14 74 31 159 36 189 l11 53 41 -5
c66 -9 269 12 373 38 487 124 976 544 1262 1085 48 89 116 249 110 255 -2 2
-70 36 -153 77 -839 418 -1370 1047 -1575 1868 -31 124 -65 321 -75 435 -3 39
-8 91 -11 118 l-6 47 2046 0 2046 0 0 1098 0 1097 -987 -3 -986 -3 7 153 c33
723 284 1465 673 1991 200 270 512 514 781 611 313 112 730 128 1065 41 124
-32 257 -80 342 -123 416 -209 700 -679 776 -1287 17 -137 15 -430 -5 -574
-35 -260 -108 -492 -208 -664 -22 -38 -38 -70 -36 -72 2 -2 73 11 158 29 444
96 809 218 1166 391 562 271 1004 631 1338 1089 668 916 819 2199 402 3423
-71 207 -127 339 -229 536 -163 318 -320 538 -552 776 -570 584 -1217 957
-1882 1086 -329 64 -745 60 -1062 -11 -309 -69 -752 -249 -1067 -435 -1563
-920 -2595 -2841 -2918 -5434 -51 -402 -79 -759 -97 -1218 l-13 -307 -568 0
-568 0 0 288 c1 1321 136 2482 420 3607 217 859 425 1478 1260 3750 615 1674
667 1822 744 2130 257 1031 238 2217 -55 3408 -183 743 -454 1467 -824 2202
-471 934 -1007 1717 -1829 2674 -246 287 -517 591 -526 591 -4 0 -72 -73 -152
-162z"  stroke="#000" stroke-width="2"/>
</g>
</svg>
